<?xml version="1.0" standalone="no"?>
<!DOCTYPE svg PUBLIC "-//W3C//DTD SVG 20010904//EN"
 "http://www.w3.org/TR/2001/REC-SVG-20010904/DTD/svg10.dtd">
<svg version="1.0" xmlns="http://www.w3.org/2000/svg"
 width="1528.000000pt" height="1528.000000pt" viewBox="0 0 1528.000000 1528.000000"
 preserveAspectRatio="xMidYMid meet">
<metadata>
Created by potrace 1.11, written by Peter Selinger 2001-2013
</metadata>
<g transform="translate(0.000000,1528.000000) scale(0.100000,-0.100000)"
fill="#000000" stroke="none">
<path d="M8727 15238 c-22 -24 -99 -106 -172 -183 -73 -77 -147 -156 -165
-175 -34 -37 -278 -295 -397 -420 -39 -41 -80 -85 -90 -96 -10 -12 -84 -91
-164 -175 -81 -85 -164 -172 -184 -194 -21 -22 -93 -98 -161 -170 -67 -71
-140 -148 -161 -171 -21 -22 -97 -103 -170 -180 -72 -76 -148 -157 -170 -180
-40 -43 -246 -261 -330 -350 -26 -28 -100 -107 -165 -175 -64 -68 -138 -147
-165 -175 -58 -62 -298 -316 -333 -353 -14 -15 -45 -49 -70 -75 l-45 -48 40
17 c322 137 715 255 1010 304 140 24 168 28 240 36 33 3 78 8 100 11 121 14
462 20 570 9 33 -3 83 -7 110 -10 50 -4 237 -30 285 -39 521 -104 954 -304
1378 -634 219 -171 445 -395 622 -616 69 -85 207 -286 252 -363 158 -278 270
-554 344 -853 15 -61 24 -99 28 -123 2 -15 7 -35 10 -45 2 -9 7 -37 10 -62 3
-25 8 -56 11 -70 3 -14 7 -45 10 -70 3 -25 8 -54 10 -65 25 -129 26 -727 0
-887 -2 -13 -6 -48 -10 -78 -11 -105 -22 -184 -30 -210 -2 -8 -6 -33 -10 -55
-8 -59 -44 -230 -67 -315 -10 -41 -21 -84 -23 -94 -7 -32 -65 -217 -86 -274
-26 -73 -24 -82 12 -42 39 43 138 148 323 344 78 82 152 161 166 176 14 15 84
89 155 165 72 76 146 154 165 175 57 60 302 319 345 365 51 53 282 299 325
345 18 19 97 103 175 185 79 83 157 166 175 185 18 19 96 102 174 185 77 82
175 185 217 230 41 44 112 118 156 165 44 47 95 101 113 120 18 19 67 71 109
116 114 121 374 395 391 414 54 58 52 48 25 146 -124 461 -331 928 -645 1454
-41 68 -54 88 -82 125 -10 13 -18 26 -18 29 0 12 -178 263 -294 416 -265 349
-650 759 -986 1050 -41 36 -83 73 -95 83 -11 10 -51 44 -90 75 -38 31 -72 60
-75 63 -3 3 -70 55 -150 115 -384 289 -764 512 -1150 676 -89 37 -242 97 -265
102 -5 2 -17 6 -25 9 -75 31 -385 112 -500 131 -19 3 -44 7 -55 10 -11 2 -45
7 -75 11 -30 4 -63 9 -73 11 -10 2 -76 6 -145 9 l-127 6 -38 -43z"/>
<path d="M5375 11685 c-16 -18 -66 -71 -110 -117 -105 -111 -334 -354 -375
-398 -18 -19 -92 -98 -165 -175 -73 -77 -152 -160 -175 -185 -23 -25 -100
-106 -170 -180 -70 -74 -145 -153 -165 -175 -21 -22 -99 -105 -175 -185 -75
-80 -148 -157 -162 -172 -14 -16 -88 -94 -164 -175 -77 -80 -150 -158 -164
-173 -14 -14 -90 -96 -170 -180 -80 -84 -177 -188 -216 -229 -40 -42 -95 -101
-124 -131 -28 -30 -106 -113 -173 -184 -67 -71 -140 -148 -162 -171 -22 -24
-71 -76 -110 -117 -38 -41 -140 -147 -225 -237 -85 -90 -163 -173 -173 -184
-10 -12 -53 -58 -95 -102 -94 -98 -326 -344 -404 -428 l-58 -62 0 -3862 0
-3863 1885 0 1885 0 0 1480 c0 814 2 1480 4 1480 3 0 31 -11 63 -24 82 -35
266 -102 343 -125 54 -17 200 -51 216 -51 5 0 26 21 209 215 77 82 154 163
170 180 17 18 91 96 165 175 74 79 153 162 175 185 22 24 92 98 157 166 64 68
137 147 163 174 26 28 104 110 174 184 69 74 144 153 166 176 22 24 99 105
170 180 72 76 146 155 165 175 19 21 96 102 170 181 74 78 176 186 226 238 49
53 124 132 165 175 124 132 129 138 271 287 75 79 153 162 173 184 39 42 274
291 358 378 26 28 47 52 47 53 0 5 -28 -8 -98 -44 -133 -69 -413 -181 -542
-217 -181 -49 -248 -67 -265 -71 -11 -2 -40 -8 -65 -14 -45 -10 -158 -30 -195
-35 -11 -2 -40 -6 -65 -9 -25 -4 -63 -9 -85 -12 -22 -2 -56 -7 -75 -9 -97 -13
-236 -19 -440 -19 -239 0 -327 5 -492 29 -154 22 -163 24 -293 56 -455 113
-829 320 -1100 608 l-30 32 -5 2679 -5 2678 -30 -33z"/>
</g>
</svg>
