<?xml version="1.0" encoding="utf-8"?>
<!-- Generator: Adobe Illustrator 24.0.2, SVG Export Plug-In . SVG Version: 6.00 Build 0)  -->
<svg version="1.1" id="Layer_1" xmlns="http://www.w3.org/2000/svg" xmlns:xlink="http://www.w3.org/1999/xlink" x="0px" y="0px"
	 viewBox="0 0 160.89 204.5" style="enable-background:new 0 0 160.89 204.5;" xml:space="preserve">
<style type="text/css">
	.st0{fill:#EFEFEF;}
</style>
<g>
	<path class="st0" d="M50.56,119.24V47.62L0,101.11v103.4h50.56v-39.66c0,0,5.5,2.39,8.46,2.71l41.99-44.42
		c-4.39,2.44-12.87,6-24.91,6C57.79,129.14,50.56,119.24,50.56,119.24z"/>
	<path class="st0" d="M160.89,59.78c-1.22-5.08-6.21-21.42-22.54-37.75C117.56,1.24,100.13-0.05,95.57,0L55.55,42.34
		c10.81-4.77,36.75-12.53,57.17,10.81c17.05,19.49,8.95,44.82,6.9,50.29L160.89,59.78z"/>
</g>
</svg>
